<svg width="352" height="60" viewBox="0 0 352 60" fill="none" xmlns="http://www.w3.org/2000/svg">
<path d="M46.8348 58.9998C45.1619 58.9998 43.5947 58.1929 42.6755 56.851L21.9389 26.5704C20.4407 24.3778 21.0841 21.444 23.382 20.01C25.68 18.5804 28.7546 19.1944 30.2575 21.387L46.5774 45.2211L71.9329 3.36782C73.3071 1.10062 76.345 0.328803 78.7164 1.63562C81.0925 2.94683 81.9014 5.84551 80.5318 8.10833L51.132 56.6273C50.2679 58.0525 48.6916 58.9471 46.9681 58.991C46.9221 58.991 46.8762 58.991 46.8302 58.991L46.8348 58.9998Z" fill="#2B4B1B"/>
<path d="M22.0998 58.9998C20.5142 58.9998 18.9562 58.2762 17.9957 56.9343L0.866832 33.0168C-0.681979 30.8549 -0.0983026 27.908 2.16287 26.4301C4.42864 24.9523 7.51707 25.5092 9.06588 27.6668L26.1993 51.5842C27.7481 53.7462 27.1645 56.6931 24.9033 58.1709C24.0484 58.7279 23.0695 58.9998 22.1044 58.9998H22.0998Z" fill="#2B4B1B"/>
<path d="M158.827 5.59679L139.012 59.6L126.528 22.8029L114.258 59.6L96.6236 10.0051V9.93281C96.3426 9.06561 95.774 8.34294 95.1451 7.69253C94.5096 7.1144 93.6666 6.60853 92.817 6.39172L91.198 5.95812V5.59679H98.1088C100.791 5.59679 103.187 7.3312 104.177 9.93281V10.0051L116.165 43.8392L128.923 5.59679L141.621 43.2611L155.375 5.59679H158.834H158.827Z" fill="#2B4B1B"/>
<path d="M186.076 29.169L186.002 54.6924H178.951V49.3447C175.211 55.2706 156.733 61.6366 156.733 45.5145C156.733 32.9335 169.498 34.2343 178.951 30.6209V27.0798C178.951 22.5993 177.118 20.4313 172.462 20.4313C170.067 20.4313 164.915 20.2144 161.39 25.4899L159.416 24.9118C162.52 19.1304 168.019 18.191 172.321 18.191C182.477 18.191 186.076 22.4547 186.076 29.1821V29.169ZM178.951 47.3869V32.7101C171.826 35.0226 164.42 35.0226 164.42 44.8575C164.42 54.6924 172.602 54.9815 178.951 47.3869Z" fill="#2B4B1B"/>
<path d="M254.702 29.169L254.628 54.6924H247.577V49.3447C243.837 55.2706 225.36 61.6366 225.36 45.5145C225.36 32.9335 238.124 34.2343 247.577 30.6209V27.0798C247.577 22.5993 245.744 20.4313 241.088 20.4313C238.693 20.4313 233.541 20.2144 230.016 25.4899L228.042 24.9118C231.146 19.1304 236.646 18.191 240.947 18.191C251.103 18.191 254.702 22.4547 254.702 29.1821V29.169ZM247.577 47.3869V32.7101C240.452 35.0226 233.046 35.0226 233.046 44.8575C233.046 54.6924 241.228 54.9815 247.577 47.3869Z" fill="#2B4B1B"/>
<path d="M281.288 50.6389C279.596 52.8792 277.127 55.7699 271.273 55.7699C264.857 55.7699 264.503 52.301 264.503 48.9045V21.213H258.723V18.4669H264.503V16.6602C264.503 13.3359 262.175 10.2284 258.228 9.79485V9.43351H271.554V18.4735H279.1V21.2196H271.554V47.4657C271.554 49.5615 271.059 52.5244 273.528 53.1748C275.006 53.6084 278.11 52.958 279.803 49.6337L281.281 50.6455L281.288 50.6389Z" fill="#2B4B1B"/>
<path d="M290.46 35.384V37.0461C290.46 50.3498 302.241 60.4738 313.24 47.3146L314.437 48.4709C314.016 49.4104 310.062 55.6976 299.906 55.6976C289.042 55.6976 282.7 47.5971 282.7 37.0461C282.7 26.4951 289.049 18.4669 299.906 18.4669C312.885 18.4669 314.504 28.6631 314.504 32.6378V35.384H290.453H290.46ZM306.048 32.6378C305.907 24.7541 304.636 20.9962 299.98 20.9962C295.324 20.9962 291.584 23.5256 290.668 32.6378H306.048Z" fill="#2B4B1B"/>
<path d="M327.904 35.384V37.0461C327.904 50.3498 339.685 60.4738 350.684 47.3146L351.881 48.4709C351.46 49.4104 347.506 55.6976 337.35 55.6976C326.486 55.6976 320.144 47.5971 320.144 37.0461C320.144 26.4951 326.493 18.4669 337.35 18.4669C350.329 18.4669 351.948 28.6631 351.948 32.6378V35.384H327.897H327.904ZM343.492 32.6378C343.351 24.7541 342.08 20.9962 337.424 20.9962C332.768 20.9962 329.028 23.5256 328.112 32.6378H343.492Z" fill="#2B4B1B"/>
<path d="M183.258 4.87712C184.394 3.76107 184.395 1.95263 183.26 0.837856C182.125 -0.276916 180.283 -0.275876 179.147 0.840178L168.971 10.8327C167.835 11.9487 167.834 13.7572 168.969 14.8719C170.104 15.9867 171.946 15.9857 173.082 14.8696L183.258 4.87712Z" fill="#2B4B1B"/>
<path d="M241.959 14.8671C243.096 15.9832 244.937 15.9842 246.072 14.8695C247.207 13.7547 247.206 11.9463 246.07 10.8302L235.894 0.837721C234.758 -0.278333 232.916 -0.279372 231.781 0.835399C230.646 1.95017 230.647 3.75861 231.784 4.87467L241.959 14.8671Z" fill="#2B4B1B"/>
<path d="M310.101 4.87737C311.237 3.76132 311.238 1.95287 310.103 0.838104C308.968 -0.276668 307.126 -0.275628 305.99 0.840426L295.814 10.8329C294.678 11.949 294.677 13.7574 295.812 14.8722C296.947 15.9869 298.789 15.9859 299.925 14.8699L310.101 4.87737Z" fill="#2B4B1B"/>
<path d="M208.648 41.5267L222.403 54.6859H217.746L201.985 39.9368V38.4652L214.997 21.4298H223.955L208.648 41.5267Z" fill="#2B4B1B"/>
<path d="M201.523 54.6858V1.76663H188.197V2.12797C192.217 2.63384 194.472 5.81359 194.472 9.13787V54.6858H201.523Z" fill="#2B4B1B"/>
</svg>
